HIERARCHY
ROOT hip
{
	OFFSET 0.000000 0.000000 0.000000
	CHANNELS 6 Xposition Yposition Zposition Xrotation Zrotation Yrotation 
	JOINT abdomen
	{
		OFFSET 0.000000 3.422050 0.000000
		CHANNELS 3 Xrotation Zrotation Yrotation 
		JOINT chest
		{
			OFFSET 0.000000 8.486693 -0.6844110
			CHANNELS 3 Xrotation Zrotation Yrotation 
			JOINT neck
			{
				OFFSET 0.000000 10.26616 -0.2737640
				CHANNELS 3 Xrotation Zrotation Yrotation 
				JOINT head
				{
					OFFSET 0.000000 3.148285 0.000000
					CHANNELS 3 Xrotation Zrotation Yrotation 
					End Site
					{
						OFFSET 0.000000 3.148289 0.000000
					}
				}
			}
			JOINT lCollar
			{
				OFFSET 3.422053 6.707223 -0.8212930
				CHANNELS 3 Yrotation Zrotation Xrotation 
				JOINT lShldr
				{
					OFFSET 3.285171 0.000000 0.000000
					CHANNELS 3 Zrotation Yrotation Xrotation 
					JOINT lForeArm
					{
						OFFSET 10.12928 0.000000 0.000000
						CHANNELS 3 Yrotation Zrotation Xrotation 
						JOINT lHand
						{
							OFFSET 8.486692 0.000000 0.000000
							CHANNELS 3 Zrotation Yrotation Xrotation 
							End Site
							{
								OFFSET 4.106464 0.000000 0.000000
							}
						}
					}
				}
			}
			JOINT rCollar
			{
				OFFSET -3.558935 6.707223 -0.8212930
				CHANNELS 3 Yrotation Zrotation Xrotation 
				JOINT rShldr
				{
					OFFSET -3.148289 0.000000 0.000000
					CHANNELS 3 Zrotation Yrotation Xrotation 
					JOINT rForeArm
					{
						OFFSET -10.26616 0.000000 0.000000
						CHANNELS 3 Yrotation Zrotation Xrotation 
						JOINT rHand
						{
							OFFSET -8.349810 0.000000 0.000000
							CHANNELS 3 Zrotation Yrotation Xrotation 
							End Site
							{
								OFFSET -4.106464 0.000000 0.000000
							}
						}
					}
				}
			}
		}
	}
	JOINT lThigh
	{
		OFFSET 5.338403 -1.642589 1.368821
		CHANNELS 3 Xrotation Zrotation Yrotation 
		JOINT lShin
		{
			OFFSET -2.053232 -20.12167 0.000000
			CHANNELS 3 Xrotation Zrotation Yrotation 
			JOINT lFoot
			{
				OFFSET 0.000000 -19.30038 -1.231939
				CHANNELS 3 Xrotation Yrotation Zrotation 
				End Site
				{
					OFFSET 0.000000 -2.463878 4.653993
				}
			}
		}
	}
	JOINT rThigh
	{
		OFFSET -5.338403 -1.642589 1.368821
		CHANNELS 3 Xrotation Zrotation Yrotation 
		JOINT rShin
		{
			OFFSET 2.053232 -20.12167 0.000000
			CHANNELS 3 Xrotation Zrotation Yrotation 
			JOINT rFoot
			{
				OFFSET 0.000000 -19.30038 -1.231939
				CHANNELS 3 Xrotation Yrotation Zrotation 
				End Site
				{
					OFFSET 0.000000 -2.463878 4.653993
				}
			}
		}
	}
}
MOTION
Frames:	7
Frame Time:	0.03333333
0.000000 40.83333 0.000000 1.000000 0.000000 0.000000 0.000000 0.000000 0.000000 0.000000 0.000000 0.000000 1.000000 0.000000 0.000000 1.000000 0.000000 0.000000 0.000000 0.000000 0.000000 -82.00000 0.000000 0.000000 0.000000 0.000000 0.1249900 0.000000 0.000000 0.000000 0.000000 0.000000 0.1249900 82.00000 0.000000 0.000000 0.000000 0.000000 0.000000 0.000000 0.000000 0.000000 -0.6666667 0.2666667 20.00000 1.666667 0.000000 0.000000 -1.642857 0.000000 0.000000 -1.200000 -0.2666667 -20.00000 0.5333334 0.000000 0.000000 -0.1428571 0.000000 0.000000 
0.000000 40.66667 0.000000 1.000000 0.000000 0.000000 0.000000 0.000000 0.000000 0.000000 0.000000 0.000000 1.000000 0.000000 0.000000 1.000000 0.000000 0.000000 0.000000 0.000000 0.000000 -82.00000 0.000000 0.000000 0.000000 0.000000 0.1206800 0.000000 0.000000 0.000000 0.000000 0.000000 0.1206800 82.00000 0.000000 0.000000 0.000000 0.000000 0.000000 0.000000 0.000000 0.000000 -1.333333 0.5333334 20.00000 3.333333 0.000000 0.000000 -3.285714 0.000000 0.000000 -2.400000 -0.5333334 -20.00000 1.066667 0.000000 0.000000 -0.2857143 0.000000 0.000000 
0.000000 40.50000 0.000000 1.000000 0.000000 0.000000 0.000000 0.000000 0.000000 0.000000 0.000000 0.000000 1.000000 0.000000 0.000000 1.000000 0.000000 0.000000 0.000000 0.000000 0.000000 -82.00000 0.000000 0.000000 0.000000 0.000000 0.1163700 0.000000 0.000000 0.000000 0.000000 0.000000 0.1163700 82.00000 0.000000 0.000000 0.000000 0.000000 0.000000 0.000000 0.000000 0.000000 -2.000000 0.8000000 20.00000 5.000000 0.000000 0.000000 -4.928571 0.000000 0.000000 -3.600000 -0.8000000 -20.00000 1.600000 0.000000 0.000000 -0.4285714 0.000000 0.000000 
0.000000 40.33333 0.000000 1.000000 0.000000 0.000000 0.000000 0.000000 0.000000 0.000000 0.000000 0.000000 1.000000 0.000000 0.000000 1.000000 0.000000 0.000000 0.000000 0.000000 0.000000 -82.00000 0.000000 0.000000 0.000000 0.000000 0.1120600 0.000000 0.000000 0.000000 0.000000 0.000000 0.1120600 82.00000 0.000000 0.000000 0.000000 0.000000 0.000000 0.000000 0.000000 0.000000 -2.666667 1.066667 20.00000 6.666667 0.000000 0.000000 -6.571429 0.000000 0.000000 -4.800000 -1.066667 -20.00000 2.133333 0.000000 0.000000 -0.5714286 0.000000 0.000000 
0.000000 40.16667 0.000000 1.000000 0.000000 0.000000 0.000000 0.000000 0.000000 0.000000 0.000000 0.000000 1.000000 0.000000 0.000000 1.000000 0.000000 0.000000 0.000000 0.000000 0.000000 -82.00000 0.000000 0.000000 0.000000 0.000000 0.1077500 0.000000 0.000000 0.000000 0.000000 0.000000 0.1077500 82.00000 0.000000 0.000000 0.000000 0.000000 0.000000 0.000000 0.000000 0.000000 -3.333333 1.333333 20.00000 8.333333 0.000000 0.000000 -8.214286 0.000000 0.000000 -6.000000 -1.333333 -20.00000 2.666667 0.000000 0.000000 -0.7142857 0.000000 0.000000 
0.000000 40.00000 0.000000 1.000000 0.000000 0.000000 0.000000 0.000000 0.000000 0.000000 0.000000 0.000000 1.000000 0.000000 0.000000 1.000000 0.000000 0.000000 0.000000 0.000000 0.000000 -82.00000 0.000000 0.000000 0.000000 0.000000 0.1034400 0.000000 0.000000 0.000000 0.000000 0.000000 0.1034400 82.00000 0.000000 0.000000 0.000000 0.000000 0.000000 0.000000 0.000000 0.000000 -4.000000 1.600000 20.00000 10.00000 0.000000 0.000000 -9.857142 0.000000 0.000000 -7.200000 -1.600000 -20.00000 3.200000 0.000000 0.000000 -0.8571429 0.000000 0.000000 
0.000000 39.83333 0.000000 1.000000 0.000000 0.000000 0.000000 0.000000 0.000000 0.000000 0.000000 0.000000 1.000000 0.000000 0.000000 1.000000 0.000000 0.000000 0.000000 0.000000 0.000000 -82.00000 0.000000 0.000000 0.000000 0.000000 0.09913002 0.000000 0.000000 0.000000 0.000000 0.000000 0.09913002 82.00000 0.000000 0.000000 0.000000 0.000000 0.000000 0.000000 0.000000 0.000000 -4.666667 1.866667 20.00000 11.66667 0.000000 0.000000 -11.50000 0.000000 0.000000 -8.400000 -1.866667 -20.00000 3.733333 0.000000 0.000000 -1.000000 0.000000 0.000000 
